<?xml version="1.0" encoding="UTF-8"?>
<svg id="Capa_2" data-name="Capa 2" xmlns="http://www.w3.org/2000/svg" viewBox="0 0 400.4 536.04">
  <defs>
    <style>
      .cls-1 {
        fill: #fff;
      }

      .cls-2 {
        fill: #f2f2f2;
      }
    </style>
  </defs>
  <g id="Capa_2-2" data-name="Capa 2">
    <path class="cls-1" d="M392.48,373.82h-15.67v-17.05c0-4.03-3.37-7.31-7.52-7.31h-35.11V103.5h5.02c4.15,0,7.52-3.28,7.52-7.31v-7.31h22.57c4.15,0,7.52-3.28,7.52-7.31v-23.74h23.2L346.16,0H51.29L0,57.84h25.71v23.74c0,4.03,3.37,7.31,7.52,7.31h20.06v7.31c0,4.03,3.37,7.31,7.52,7.31h5.02v245.97H30.72c-4.15,0-7.52,3.28-7.52,7.31v17.05H7.52c-4.15,0-7.52,3.28-7.52,7.31v18.87h400v-18.87c0-4.03-3.37-7.31-7.52-7.31ZM174.92,349.47h-61.44V103.5h3.76c4.15,0,7.52-3.28,7.52-7.31v-4.8c0-1.39,1.12-2.51,2.51-2.51h32.6c1.39,0,2.51,1.12,2.51,2.51v4.8c0,4.03,3.37,7.31,7.52,7.31h5.02v245.97ZM286.52,349.47h-63.95V103.5h3.76c4.15,0,7.52-3.28,7.52-7.31v-4.8c0-1.39,1.12-2.51,2.51-2.51h36.36c1.39,0,2.51,1.12,2.51,2.51v4.8c0,4.03,3.37,7.31,7.52,7.31h3.76v245.97Z"/>
    <g>
      <path class="cls-2" d="M.4,428.52c8.43-1.27,18.45-2.23,29.43-2.23,19.88,0,34.04,4.61,43.42,13.36,9.54,8.75,15.11,21.15,15.11,38.49s-5.41,31.81-15.43,41.67c-10.02,10.02-26.56,15.43-47.4,15.43-9.86,0-18.13-.48-25.13-1.27v-105.45ZM14.24,523.32c3.5.64,8.59.8,14,.8,29.59,0,45.65-16.54,45.65-45.49.16-25.29-14.16-41.36-43.42-41.36-7.16,0-12.57.64-16.22,1.43v84.62Z"/>
      <path class="cls-2" d="M114.28,498.35c.32,18.93,12.41,26.72,26.4,26.72,10.02,0,16.06-1.75,21.31-3.98l2.39,10.02c-4.93,2.23-13.36,4.77-25.61,4.77-23.7,0-37.86-15.59-37.86-38.81s13.68-41.51,36.11-41.51c25.13,0,31.81,22.11,31.81,36.26,0,2.86-.32,5.09-.48,6.52h-54.08ZM155.31,488.33c.16-8.91-3.66-22.74-19.4-22.74-14.16,0-20.36,13.04-21.47,22.74h40.88Z"/>
      <path class="cls-2" d="M186.17,421.36h14v112.93h-14v-112.93Z"/>
      <path class="cls-2" d="M225.13,534.29v-66.33h-10.81v-10.66h10.81v-3.66c0-10.82,2.39-20.68,8.91-26.88,5.25-5.09,12.25-7.16,18.77-7.16,4.93,0,9.23,1.11,11.93,2.23l-1.91,10.82c-2.07-.95-4.93-1.75-8.91-1.75-11.93,0-14.95,10.5-14.95,22.27v4.14h18.61v10.66h-18.61v66.33h-13.84Z"/>
      <path class="cls-2" d="M337.74,495.17c0,28.47-19.72,40.88-38.33,40.88-20.84,0-36.9-15.27-36.9-39.6,0-25.77,16.86-40.88,38.17-40.88s37.06,16.06,37.06,39.6ZM276.66,495.96c0,16.86,9.7,29.59,23.38,29.59s23.38-12.57,23.38-29.9c0-13.04-6.52-29.59-23.06-29.59s-23.7,15.27-23.7,29.9Z"/>
      <path class="cls-2" d="M353.48,519.98c4.13,2.7,11.45,5.57,18.45,5.57,10.18,0,14.95-5.09,14.95-11.45,0-6.68-3.98-10.34-14.31-14.16-13.84-4.93-20.36-12.57-20.36-21.79,0-12.41,10.02-22.59,26.56-22.59,7.79,0,14.63,2.23,18.93,4.77l-3.5,10.18c-3.02-1.91-8.59-4.45-15.75-4.45-8.27,0-12.88,4.77-12.88,10.5,0,6.36,4.61,9.23,14.63,13.04,13.36,5.09,20.2,11.77,20.2,23.22,0,13.52-10.5,23.06-28.79,23.06-8.43,0-16.22-2.07-21.63-5.25l3.5-10.66Z"/>
    </g>
  </g>
</svg>