<?xml version="1.0" encoding="UTF-8"?>
<svg id="Capa_2" data-name="Capa 2" xmlns="http://www.w3.org/2000/svg" viewBox="0 0 400 400">
  <defs>
    <style>
      .cls-1 {
        fill: #fff;
      }
    </style>
  </defs>
  <g id="Capa_2-2" data-name="Capa 2">
    <path class="cls-1" d="M392.48,373.82h-15.67v-17.05c0-4.03-3.37-7.31-7.52-7.31h-35.11V103.5h5.02c4.15,0,7.52-3.28,7.52-7.31v-7.31h22.57c4.15,0,7.52-3.28,7.52-7.31v-23.74h23.2L346.16,0H51.29L0,57.84h25.71v23.74c0,4.03,3.37,7.31,7.52,7.31h20.06v7.31c0,4.03,3.37,7.31,7.52,7.31h5.02v245.97H30.72c-4.15,0-7.52,3.28-7.52,7.31v17.05H7.52c-4.15,0-7.52,3.28-7.52,7.31v18.87h400v-18.87c0-4.03-3.37-7.31-7.52-7.31ZM174.92,349.47h-61.44V103.5h3.76c4.15,0,7.52-3.28,7.52-7.31v-4.8c0-1.39,1.12-2.51,2.51-2.51h32.6c1.39,0,2.51,1.12,2.51,2.51v4.8c0,4.03,3.37,7.31,7.52,7.31h5.02v245.97ZM286.52,349.47h-63.95V103.5h3.76c4.15,0,7.52-3.28,7.52-7.31v-4.8c0-1.39,1.12-2.51,2.51-2.51h36.36c1.39,0,2.51,1.12,2.51,2.51v4.8c0,4.03,3.37,7.31,7.52,7.31h3.76v245.97Z"/>
  </g>
</svg>